<svg width="401" height="126" viewBox="0 0 401 126" fill="none" xmlns="http://www.w3.org/2000/svg">
<g clip-path="url(#clip0_149_236)">
<path d="M373.703 119.066H369.671C369.031 117.914 367.611 115.494 366.394 114.158C364.364 111.941 358.325 111.542 355.46 112.451C352.871 113.285 350.807 117.231 349.976 119.066H279.507C278.886 117.511 277.47 114.897 274.853 114.568C272.015 114.214 270.733 115.317 269.601 116.29C269.388 116.478 269.158 116.674 268.916 116.862C268.086 117.516 267.326 118.255 266.65 119.066H262.217C261.552 118.336 260.232 116.932 258.705 115.573C255.407 112.626 253.023 111.519 251.202 112.065C248.253 112.961 246.085 117.216 245.251 119.066H223.963C223.567 119.066 223.188 119.224 222.908 119.504C222.628 119.784 222.471 120.164 222.471 120.56C222.471 120.956 222.628 121.336 222.908 121.617C223.188 121.897 223.567 122.054 223.963 122.054H373.713C374.109 122.054 374.489 121.897 374.769 121.617C375.049 121.336 375.206 120.956 375.206 120.56C375.206 120.164 375.049 119.784 374.769 119.504C374.489 119.224 374.109 119.066 373.713 119.066H373.703ZM356.372 115.311C358.717 114.564 363.316 115.217 364.202 116.186C364.917 117.041 365.559 117.956 366.12 118.919H353.387C354.291 117.25 355.462 115.597 356.372 115.311ZM252.078 114.927C252.078 114.927 253.234 114.69 256.708 117.786C257.174 118.213 257.624 118.627 258.04 119.034L248.637 118.943C249.601 117.11 250.927 115.27 252.07 114.925L252.078 114.927ZM270.939 119.068C271.153 118.89 271.366 118.716 271.545 118.558C272.543 117.705 272.955 117.344 274.481 117.534C275.145 117.618 275.739 118.296 276.187 119.068H270.939Z" fill="#EBEBEB"/>
<path d="M78.1821 119.066H68.628C68.232 119.066 67.852 119.223 67.5727 119.504C67.2927 119.784 67.1353 120.164 67.1353 120.56C67.1353 120.956 67.2927 121.336 67.5727 121.616C67.852 121.896 68.232 122.054 68.628 122.054H78.1821C78.5781 122.054 78.9574 121.896 79.2374 121.616C79.5174 121.336 79.6747 120.956 79.6747 120.56C79.6747 120.164 79.5174 119.784 79.2374 119.504C78.9574 119.223 78.5781 119.066 78.1821 119.066Z" fill="#EBEBEB"/>
<path d="M48.3378 119.066H2.00327C1.60743 119.066 1.2278 119.223 0.947893 119.504C0.66799 119.784 0.510742 120.164 0.510742 120.56C0.510742 120.956 0.66799 121.336 0.947893 121.616C1.2278 121.896 1.60743 122.054 2.00327 122.054H48.3378C48.7336 122.054 49.1133 121.896 49.3931 121.616C49.673 121.336 49.8303 120.956 49.8303 120.56C49.8303 120.164 49.673 119.784 49.3931 119.504C49.1133 119.223 48.7336 119.066 48.3378 119.066Z" fill="#EBEBEB"/>
<path d="M217.567 119.066H209.145C208.749 119.066 208.37 119.223 208.09 119.504C207.81 119.784 207.652 120.164 207.652 120.56C207.652 120.956 207.81 121.336 208.09 121.616C208.37 121.896 208.749 122.054 209.145 122.054H217.567C217.963 122.054 218.342 121.896 218.622 121.616C218.902 121.336 219.06 120.956 219.06 120.56C219.06 120.164 218.902 119.784 218.622 119.504C218.342 119.223 217.963 119.066 217.567 119.066Z" fill="#EBEBEB"/>
<path d="M391.417 118.917H379.513C379.117 118.917 378.737 119.074 378.457 119.354C378.177 119.634 378.02 120.014 378.02 120.411C378.02 120.807 378.177 121.187 378.457 121.467C378.737 121.747 379.117 121.904 379.513 121.904H391.417C391.813 121.904 392.193 121.747 392.472 121.467C392.752 121.187 392.909 120.807 392.909 120.411C392.909 120.014 392.752 119.634 392.472 119.354C392.193 119.074 391.813 118.917 391.417 118.917Z" fill="#EBEBEB"/>
<path d="M398.986 118.917H397.097C396.701 118.917 396.322 119.074 396.042 119.354C395.762 119.634 395.604 120.014 395.604 120.411C395.604 120.807 395.762 121.187 396.042 121.467C396.322 121.747 396.701 121.904 397.097 121.904H398.997C399.393 121.904 399.772 121.747 400.052 121.467C400.332 121.187 400.49 120.807 400.49 120.411C400.49 120.014 400.332 119.634 400.052 119.354C399.772 119.074 399.393 118.917 398.997 118.917H398.986Z" fill="#EBEBEB"/>
<path d="M177.555 103.882C177.476 103.683 177.356 103.503 177.201 103.353C177.047 103.205 176.862 103.091 176.66 103.02C176.457 102.949 176.242 102.922 176.029 102.942C175.815 102.961 175.609 103.027 175.423 103.134C175.367 103.163 169.96 106.275 165.945 107.596C162.039 108.876 154.431 108.644 154.363 108.64C154.087 108.63 153.813 108.698 153.573 108.835C153.333 108.972 153.135 109.174 153.003 109.416L147.721 119.066H88.954C88.558 119.066 88.1787 119.224 87.8987 119.504C87.6188 119.784 87.4614 120.164 87.4614 120.56C87.4614 120.956 87.6188 121.336 87.8987 121.616C88.1787 121.896 88.558 122.054 88.954 122.054H165.542C165.938 122.054 166.317 121.896 166.597 121.616C166.877 121.336 167.035 120.956 167.035 120.56C167.035 120.164 166.877 119.784 166.597 119.504C166.317 119.224 165.938 119.066 165.542 119.066H151.126L155.177 111.644C157.444 111.672 163.295 111.612 166.871 110.434C169.855 109.45 173.412 107.63 175.399 106.561L181.064 121.072C181.226 121.414 181.512 121.68 181.864 121.819C182.214 121.958 182.605 121.958 182.956 121.82C183.308 121.682 183.594 121.416 183.757 121.075C183.92 120.734 183.949 120.344 183.836 119.984L177.555 103.882Z" fill="#EBEBEB"/>
<path d="M132.576 17.1806C130.035 17.1812 127.599 18.1915 125.803 19.9895C124.006 21.7875 122.996 24.226 122.996 26.7688V44.5004C122.996 45.497 122.6 46.4529 121.896 47.1577C121.192 47.8624 120.237 48.2584 119.241 48.2584H107.38V24.2826C107.38 21.9664 106.924 19.6729 106.038 17.5329C105.153 15.393 103.855 13.4487 102.218 11.8108C100.582 10.1731 98.6395 8.87387 96.501 7.98751C94.3631 7.10111 92.0712 6.6449 89.7573 6.6449C87.4435 6.6449 85.1516 7.10113 83.0137 7.98751C80.8758 8.87393 78.9333 10.1731 77.2973 11.811C75.6608 13.4488 74.3628 15.3932 73.4776 17.5331C72.5923 19.673 72.137 21.9665 72.137 24.2826V79.3085H60.2757C59.2798 79.3085 58.3248 78.9125 57.6206 78.2079C56.9164 77.5033 56.5209 76.5473 56.5209 75.5507V57.8188C56.4833 55.3004 55.4574 52.8978 53.6647 51.1301C51.872 49.3624 49.4564 48.3715 46.9399 48.3715C44.4233 48.3715 42.0078 49.3624 40.2151 51.1301C38.4224 52.8978 37.3965 55.3004 37.3589 57.8188V87.3407C37.3589 88.8047 37.647 90.2539 38.2066 91.6058C38.7663 92.9584 39.5867 94.187 40.6208 95.2216C41.655 96.2562 42.8827 97.0775 44.2338 97.6368C45.5848 98.1968 47.033 98.4848 48.4953 98.4848H72.137V125.16H107.38V67.4371H131.022C133.974 67.4358 136.805 66.2609 138.893 64.1706C140.98 62.0804 142.152 59.246 142.151 56.2909V26.7688C142.151 24.2266 141.143 21.7884 139.347 19.9904C137.551 18.1924 135.116 17.1817 132.576 17.1806Z" fill="#F7B017"/>
<path d="M66.0538 102.079C66.0538 102.474 66.211 102.854 66.491 103.134C66.7708 103.414 67.1505 103.572 67.5464 103.572C67.9423 103.572 68.3217 103.414 68.6017 103.134C68.8816 102.854 69.039 102.474 69.039 102.079V19.6301C69.039 18.103 69.2543 16.5836 69.6783 15.1167C69.7376 14.927 69.7589 14.7275 69.7396 14.5297C69.7209 14.3319 69.6629 14.1399 69.5696 13.9648C69.4756 13.7897 69.3476 13.6351 69.1936 13.51C69.039 13.385 68.8616 13.292 68.671 13.2365C68.4803 13.181 68.2803 13.1641 68.0837 13.1868C67.8864 13.2095 67.6957 13.2714 67.5224 13.3688C67.3497 13.4662 67.1977 13.5971 67.0757 13.754C66.9538 13.9108 66.8645 14.0904 66.8129 14.2823C66.3091 16.0201 66.0542 17.8207 66.0559 19.6301V73.1621H55.685C55.0852 73.1614 54.5101 72.9227 54.086 72.4981C53.6618 72.0741 53.4233 71.4981 53.4227 70.8982V69.0903L57.7553 66.44C58.0946 66.2332 58.3379 65.8998 58.4317 65.5135C58.5255 65.127 58.462 64.7192 58.2553 64.3796C58.0486 64.04 57.7156 63.7965 57.3296 63.7026C56.9435 63.6088 56.536 63.6723 56.1967 63.8792L53.4249 65.5864V54.848L57.0176 52.1698C57.3351 51.9329 57.5456 51.5795 57.6028 51.1873C57.66 50.7951 57.5592 50.3962 57.3225 50.0784C57.0859 49.7606 56.7328 49.5499 56.3409 49.4927C55.949 49.4355 55.5505 49.5364 55.233 49.7732L53.2564 51.2479C52.8439 48.9108 51.692 46.7683 49.9707 45.136L51.9195 42.1484C52.0267 41.9841 52.1003 41.8001 52.1365 41.6073C52.1725 41.4144 52.1703 41.2163 52.1299 41.0243C52.0896 40.8323 52.0118 40.6501 51.9011 40.4881C51.7903 40.3262 51.6488 40.1877 51.4846 40.0805C51.3204 39.9733 51.1366 39.8996 50.9439 39.8634C50.7512 39.8273 50.5533 39.8295 50.3614 39.8699C50.1696 39.9104 49.9876 39.9882 49.8258 40.099C49.664 40.2099 49.5256 40.3515 49.4185 40.5159L47.5464 43.3925C46.2414 42.697 44.8104 42.2702 43.3378 42.1375C41.8653 42.0049 40.3811 42.1689 38.9729 42.62L37.8471 39.9504C37.771 39.7696 37.66 39.6056 37.5205 39.4678C37.3811 39.3299 37.2158 39.221 37.0342 39.1471C36.8527 39.0731 36.6584 39.0358 36.4624 39.037C36.2664 39.0382 36.0725 39.0781 35.8919 39.1543C35.7113 39.2306 35.5475 39.3417 35.4098 39.4813C35.272 39.6209 35.1632 39.7862 35.0893 39.968C35.0154 40.1497 34.9781 40.3441 34.9794 40.5403C34.9806 40.7365 35.0204 40.9305 35.0966 41.1112L36.2778 43.9132C34.7435 44.92 33.4832 46.2927 32.6104 47.9079C31.7377 49.5231 31.2797 51.3301 31.2778 53.1664V53.5292L29.5892 51.7515C29.4539 51.6094 29.2921 51.4954 29.1128 51.4159C28.9335 51.3364 28.7404 51.2931 28.5443 51.2884C28.3483 51.2836 28.1533 51.3175 27.9704 51.3882C27.7875 51.4589 27.6203 51.5649 27.4783 51.7003C27.3363 51.8357 27.2224 51.9977 27.143 52.1771C27.0636 52.3565 27.0203 52.5498 27.0155 52.746C27.0108 52.9422 27.0447 53.1374 27.1153 53.3205C27.1859 53.5035 27.2919 53.6709 27.4271 53.813L31.2778 57.8612V72.4601L29.5849 70.6929C29.4533 70.5362 29.291 70.4082 29.108 70.3169C28.9249 70.2255 28.725 70.1729 28.5208 70.1622C28.3165 70.1516 28.1123 70.1829 27.9206 70.2542C27.729 70.3262 27.5541 70.4362 27.4069 70.5782C27.2595 70.7202 27.1429 70.8908 27.0643 71.0802C26.9857 71.2688 26.9468 71.4721 26.9499 71.6768C26.953 71.8815 26.9981 72.0835 27.0824 72.2701C27.1667 72.4561 27.2884 72.6234 27.4399 72.7607L31.2778 76.7752V82.6882C31.2818 86.0394 32.6137 89.2519 34.9813 91.6211C37.3489 93.9903 40.5588 95.3229 43.9068 95.3262H66.0538V102.079ZM43.9046 92.3384C41.3486 92.335 38.8981 91.3171 37.0907 89.5085C35.2832 87.6993 34.2663 85.2467 34.263 82.6882V53.1664C34.2974 51.0421 35.1647 49.0165 36.6778 47.5264C38.1909 46.0364 40.2286 45.2013 42.3514 45.2013C44.4741 45.2013 46.5118 46.0364 48.0249 47.5264C49.538 49.0165 50.4054 51.0421 50.4398 53.1664V70.8982C50.4415 72.2901 50.9949 73.6254 51.9786 74.61C52.9623 75.5946 54.2959 76.1479 55.6871 76.1499H66.0538V92.3384H43.9046Z" fill="#393B46"/>
<path d="M102.789 88.2267C102.393 88.2267 102.014 88.384 101.734 88.664C101.454 88.944 101.297 89.324 101.297 89.7206V119.022H69.0392V112.701C69.0392 112.305 68.8819 111.925 68.6019 111.645C68.3219 111.365 67.9426 111.208 67.5467 111.208C67.1509 111.208 66.7712 111.365 66.4914 111.645C66.2115 111.925 66.0542 112.305 66.0542 112.701V120.516C66.0542 120.913 66.2115 121.292 66.4914 121.573C66.7712 121.853 67.1509 122.01 67.5467 122.01H102.789C103.185 122.01 103.565 121.853 103.845 121.573C104.125 121.292 104.282 120.913 104.282 120.516V89.7206C104.282 89.324 104.125 88.944 103.845 88.664C103.565 88.384 103.185 88.2267 102.789 88.2267Z" fill="#393B46"/>
<path d="M91.0414 22.8524C91.4367 22.8524 91.8167 22.695 92.0967 22.4149C92.3767 22.1347 92.5333 21.7548 92.5333 21.3586V17.8908C92.5333 17.4946 92.3767 17.1146 92.0967 16.8345C91.8167 16.5544 91.4367 16.397 91.0414 16.397C90.6454 16.397 90.2655 16.5544 89.9855 16.8345C89.7055 17.1146 89.5488 17.4946 89.5488 17.8908V21.3586C89.5488 21.7548 89.7055 22.1347 89.9855 22.4149C90.2655 22.695 90.6454 22.8524 91.0414 22.8524Z" fill="#393B46"/>
<path d="M89.5488 62.7847C89.5488 63.1809 89.7055 63.5608 89.9855 63.841C90.2655 64.1211 90.6454 64.2785 91.0414 64.2785C91.4367 64.2785 91.8167 64.1211 92.0967 63.841C92.3767 63.5608 92.5333 63.1809 92.5333 62.7847V28.4546C92.5333 28.0584 92.3767 27.6784 92.0967 27.3983C91.8167 27.1181 91.4367 26.9608 91.0414 26.9608C90.6454 26.9608 90.2655 27.1181 89.9855 27.3983C89.7055 27.6784 89.5488 28.0584 89.5488 28.4546V62.7847Z" fill="#393B46"/>
<path d="M89.5488 110.239C89.5488 110.635 89.7055 111.015 89.9855 111.295C90.2655 111.575 90.6454 111.733 91.0414 111.733C91.4367 111.733 91.8167 111.575 92.0967 111.295C92.3767 111.015 92.5333 110.635 92.5333 110.239V73.8028C92.5333 73.4061 92.3767 73.0261 92.0967 72.7461C91.8167 72.4662 91.4367 72.3088 91.0414 72.3088C90.6454 72.3088 90.2655 72.4662 89.9855 72.7461C89.7055 73.0261 89.5488 73.4061 89.5488 73.8028V110.239Z" fill="#393B46"/>
<path d="M79.2943 54.2763C79.6903 54.2763 80.0703 54.1189 80.3503 53.8388C80.6296 53.5586 80.7869 53.1787 80.7869 52.7825V15.3303C80.7869 14.9342 80.6296 14.5542 80.3503 14.2741C80.0703 13.9939 79.6903 13.8365 79.2943 13.8365C78.899 13.8365 78.5191 13.9939 78.2391 14.2741C77.9591 14.5542 77.8018 14.9342 77.8018 15.3303V52.7825C77.8018 53.1787 77.9591 53.5586 78.2391 53.8388C78.5191 54.1189 78.899 54.2763 79.2943 54.2763Z" fill="#393B46"/>
<path d="M77.8018 89.7199C77.8018 90.1166 77.9591 90.4965 78.2391 90.7765C78.5191 91.0565 78.899 91.2138 79.2943 91.2138C79.6903 91.2138 80.0703 91.0565 80.3503 90.7765C80.6296 90.4965 80.7869 90.1166 80.7869 89.7199V65.1597C80.7869 64.7635 80.6296 64.3836 80.3503 64.1034C80.0703 63.8233 79.6903 63.6659 79.2943 63.6659C78.899 63.6659 78.5191 63.8233 78.2391 64.1034C77.9591 64.3836 77.8018 64.7635 77.8018 65.1597V89.7199Z" fill="#393B46"/>
<path d="M77.8018 110.239C77.8018 110.635 77.9591 111.015 78.2391 111.295C78.5191 111.575 78.899 111.733 79.2943 111.733C79.6903 111.733 80.0703 111.575 80.3503 111.295C80.6296 111.015 80.7869 110.635 80.7869 110.239V96.1035C80.7869 95.7069 80.6296 95.3269 80.3503 95.0469C80.0703 94.7669 79.6903 94.6096 79.2943 94.6096C78.899 94.6096 78.5191 94.7669 78.2391 95.0469C77.9591 95.3269 77.8018 95.7069 77.8018 96.1035V110.239Z" fill="#393B46"/>
<path d="M143.969 32.1848C143.755 31.8514 143.419 31.6162 143.033 31.531C142.647 31.4457 142.242 31.5174 141.909 31.7302L139.06 33.5527V22.1164C139.06 21.9031 139.06 21.7025 139.041 21.4975L143.005 18.8066C143.332 18.5838 143.558 18.2401 143.632 17.8509C143.706 17.4617 143.623 17.0589 143.4 16.7312C143.178 16.4036 142.834 16.1777 142.445 16.1035C142.057 16.0292 141.654 16.1126 141.327 16.3354L138.402 18.3264C137.852 16.8275 136.986 15.4643 135.864 14.3292C134.742 13.1941 133.39 12.3136 131.898 11.7472L132.463 7.78648C132.491 7.59222 132.481 7.39443 132.433 7.20424C132.384 7.01412 132.299 6.83537 132.181 6.67822C132.064 6.52108 131.917 6.38863 131.748 6.28841C131.579 6.1882 131.393 6.1222 131.199 6.09417C131.005 6.06615 130.807 6.07665 130.617 6.12508C130.427 6.17351 130.249 6.25892 130.091 6.37643C129.935 6.49394 129.802 6.64125 129.702 6.80995C129.602 6.97865 129.536 7.16544 129.508 7.35963L128.977 11.0771C128.653 11.0472 128.327 11.0302 127.994 11.0302C125.693 11.0284 123.449 11.7485 121.578 13.0895L119.57 9.87357C119.469 9.70051 119.335 9.54945 119.175 9.42932C119.015 9.3092 118.833 9.22253 118.639 9.17434C118.445 9.12614 118.243 9.11747 118.045 9.14887C117.848 9.18027 117.659 9.25107 117.489 9.35706C117.319 9.46305 117.173 9.60205 117.058 9.76584C116.943 9.92963 116.862 10.1149 116.82 10.3105C116.778 10.5062 116.776 10.7083 116.813 10.9049C116.851 11.1015 116.927 11.2885 117.039 11.4548L119.363 15.1787C117.776 17.1428 116.911 19.5927 116.913 22.1186V26.8668L114.567 24.8032C114.421 24.6677 114.249 24.5629 114.062 24.495C113.875 24.4271 113.676 24.3975 113.476 24.4079C113.278 24.4183 113.082 24.4684 112.903 24.5554C112.724 24.6424 112.564 24.7645 112.432 24.9144C112.301 25.0644 112.2 25.2392 112.138 25.4285C112.075 25.6178 112.05 25.8178 112.066 26.0167C112.082 26.2156 112.137 26.4093 112.229 26.5865C112.32 26.7636 112.446 26.9206 112.6 27.0482L116.917 30.8403V39.8502C116.917 40.148 116.857 40.4427 116.743 40.7177C116.629 40.9925 116.461 41.2422 116.25 41.4522C116.039 41.6623 115.789 41.8287 115.514 41.942C115.239 42.0552 114.944 42.1131 114.647 42.1122H104.282V19.6303C104.282 15.793 103.129 12.0444 100.972 8.87155C98.8157 5.6987 95.7565 3.24814 92.1907 1.83822C88.6249 0.428287 84.7177 0.124155 80.9766 0.965324C77.2361 1.8065 73.8343 3.75409 71.2138 6.55512C70.9418 6.84434 70.7958 7.22984 70.8078 7.62689C70.8198 8.02386 70.9891 8.39984 71.2778 8.6721C71.5671 8.94428 71.9518 9.09047 72.3484 9.07847C72.7457 9.06647 73.121 8.89728 73.393 8.60803C74.8949 6.98547 76.7175 5.6925 78.7441 4.81092C80.7713 3.92933 82.9592 3.47832 85.1691 3.48639C89.4455 3.49148 93.5446 5.19405 96.5684 8.22059C99.5916 11.2471 101.292 15.3504 101.297 19.6303V75.132C101.297 75.528 101.454 75.908 101.734 76.1886C102.014 76.4686 102.393 76.6259 102.789 76.6259C103.185 76.6259 103.565 76.4686 103.845 76.1886C104.125 75.908 104.282 75.528 104.282 75.132V64.2784H126.431C129.779 64.2744 132.989 62.9415 135.357 60.5719C137.724 58.2023 139.056 54.9896 139.06 51.6385V47.554C139.06 47.1578 138.903 46.7779 138.623 46.4977C138.343 46.2176 137.964 46.0602 137.568 46.0602C137.172 46.0602 136.792 46.2176 136.512 46.4977C136.232 46.7779 136.075 47.1578 136.075 47.554V51.6385C136.072 54.1976 135.055 56.651 133.247 58.4606C131.439 60.2701 128.988 61.2879 126.431 61.2908H104.282V45.0999H114.647C116.037 45.0982 117.371 44.5443 118.355 43.5598C119.339 42.5752 119.892 41.2404 119.894 39.848V22.1164C119.929 19.9922 120.796 17.9665 122.309 16.4765C123.822 14.9865 125.86 14.1514 127.982 14.1514C130.105 14.1514 132.143 14.9865 133.656 16.4765C135.169 17.9665 136.036 19.9922 136.071 22.1164V40.5651C136.071 40.9612 136.228 41.3412 136.508 41.6214C136.788 41.9015 137.168 42.0589 137.564 42.0589C137.959 42.0589 138.339 41.9015 138.619 41.6214C138.899 41.3412 139.056 40.9612 139.056 40.5651V37.0973L143.51 34.2484C143.675 34.1431 143.819 34.0061 143.931 33.8454C144.044 33.6847 144.124 33.5034 144.167 33.3116C144.209 33.12 144.214 32.9219 144.18 32.7285C144.145 32.5351 144.074 32.3504 143.969 32.1848Z" fill="#393B46"/>
<path d="M113.58 51.2883H110.548C110.152 51.2883 109.773 51.4457 109.493 51.7259C109.213 52.006 109.056 52.386 109.056 52.7822C109.056 53.1784 109.213 53.5583 109.493 53.8385C109.773 54.1186 110.152 54.276 110.548 54.276H113.58C113.976 54.276 114.356 54.1186 114.636 53.8385C114.915 53.5583 115.073 53.1784 115.073 52.7822C115.073 52.386 114.915 52.006 114.636 51.7259C114.356 51.4457 113.976 51.2883 113.58 51.2883Z" fill="#393B46"/>
<path d="M128.032 38.4139C127.637 38.4139 127.257 38.5713 126.977 38.8515C126.697 39.1316 126.54 39.5116 126.54 39.9078V46.7004C126.539 47.9169 126.055 49.0832 125.196 49.9435C124.336 50.8037 123.171 51.2874 121.955 51.2885C121.559 51.2885 121.18 51.4459 120.9 51.7261C120.62 52.0062 120.463 52.3862 120.463 52.7824C120.463 53.1786 120.62 53.5585 120.9 53.8386C121.18 54.1188 121.559 54.2762 121.955 54.2762C123.962 54.2739 125.886 53.475 127.305 52.0547C128.724 50.6346 129.522 48.7089 129.524 46.7004V39.9078C129.524 39.5116 129.367 39.1316 129.088 38.8515C128.808 38.5713 128.428 38.4139 128.032 38.4139Z" fill="#393B46"/>
<path d="M129.525 22.8358C129.525 22.4396 129.368 22.0596 129.088 21.7795C128.808 21.4993 128.428 21.3419 128.032 21.3419C127.637 21.3419 127.257 21.4993 126.977 21.7795C126.697 22.0596 126.54 22.4396 126.54 22.8358V32.6523C126.54 33.0485 126.697 33.4284 126.977 33.7086C127.257 33.9887 127.637 34.1461 128.032 34.1461C128.428 34.1461 128.808 33.9887 129.088 33.7086C129.368 33.4284 129.525 33.0485 129.525 32.6523V22.8358Z" fill="#393B46"/>
<path d="M59.9089 82.4043H51.7C51.3042 82.4043 50.9245 82.5616 50.6447 82.8423C50.3648 83.1223 50.2075 83.5022 50.2075 83.8982C50.2075 84.2942 50.3648 84.6742 50.6447 84.9548C50.9245 85.2348 51.3042 85.3921 51.7 85.3921H59.9089C60.3048 85.3921 60.6844 85.2348 60.9643 84.9548C61.2443 84.6742 61.4015 84.2942 61.4015 83.8982C61.4015 83.5022 61.2443 83.1223 60.9643 82.8423C60.6844 82.5616 60.3048 82.4043 59.9089 82.4043Z" fill="#393B46"/>
<path d="M43.9177 77.8165V70.4949C43.9177 70.0982 43.7604 69.7183 43.4805 69.4383C43.2006 69.1583 42.821 69.001 42.4251 69.001C42.0293 69.001 41.6496 69.1583 41.3697 69.4383C41.0899 69.7183 40.9326 70.0982 40.9326 70.4949V77.8165C40.9308 79.7251 41.6506 81.5643 42.9475 82.9636C43.0794 83.1122 43.2396 83.2335 43.4187 83.3195C43.5979 83.4049 43.7923 83.4542 43.9907 83.4642C44.1892 83.4742 44.3875 83.4442 44.5742 83.3762C44.7609 83.3082 44.9321 83.2035 45.0779 83.0682C45.2236 82.9329 45.3409 82.7702 45.423 82.5889C45.505 82.4083 45.5502 82.2123 45.5557 82.0136C45.5612 81.815 45.5271 81.617 45.4552 81.4316C45.3834 81.2463 45.2753 81.0777 45.1373 80.9343C44.3521 80.0864 43.9164 78.9724 43.9177 77.8165Z" fill="#393B46"/>
<path d="M42.4251 61.2654C42.821 61.2654 43.2006 61.108 43.4805 60.8279C43.7604 60.5477 43.9177 60.1678 43.9177 59.7716V53.95C43.9177 53.5538 43.7604 53.1738 43.4805 52.8937C43.2006 52.6136 42.821 52.4562 42.4251 52.4562C42.0293 52.4562 41.6496 52.6136 41.3697 52.8937C41.0899 53.1738 40.9326 53.5538 40.9326 53.95V59.7716C40.9326 60.1678 41.0899 60.5477 41.3697 60.8279C41.6496 61.108 42.0293 61.2654 42.4251 61.2654Z" fill="#393B46"/>
<path d="M324.621 92.7584C340.072 85.8461 346.981 67.6584 340.052 52.1343C333.123 36.6105 314.98 29.6295 299.529 36.542C284.078 43.4543 277.17 61.6424 284.099 77.1665C291.028 92.6904 309.171 99.6713 324.621 92.7584Z" fill="white"/>
<path d="M324.498 92.8191C339.885 85.9354 346.74 67.7691 339.807 52.2362C332.873 36.7033 314.794 29.7115 299.403 36.597C299.403 36.597 317.739 37.0256 327.075 57.9409C336.307 78.6112 324.498 92.8191 324.498 92.8191Z" fill="#E0DFE1"/>
<path d="M281.401 65.5667C281.555 65.5679 281.708 65.5389 281.851 65.4814C281.995 65.4239 282.125 65.339 282.235 65.2315C282.346 65.1241 282.435 64.9962 282.495 64.8552C282.557 64.7142 282.589 64.5628 282.591 64.4097C282.732 56.6743 285.899 49.2752 291.421 43.7835C291.641 43.5639 291.767 43.2666 291.768 42.957C291.769 42.6474 291.647 42.3509 291.427 42.1327C291.209 41.9145 290.911 41.7925 290.599 41.7935C290.287 41.7945 289.989 41.9185 289.767 42.1381C286.964 44.9214 284.698 48.1927 283.086 51.7868L282.323 49.7851C282.269 49.6422 282.186 49.5114 282.081 49.4006C281.975 49.2897 281.849 49.2007 281.708 49.1387C281.567 49.0767 281.416 49.0429 281.261 49.0393C281.107 49.0357 280.954 49.0623 280.81 49.1176C280.519 49.2293 280.283 49.4511 280.155 49.7342C280.091 49.8744 280.057 50.0255 280.051 50.1788C280.047 50.332 280.073 50.4845 280.127 50.6274L281.819 55.057C280.83 58.0772 280.3 61.2242 280.247 64.3934C280.243 64.7022 280.362 64.9993 280.578 65.2193C280.795 65.4393 281.091 65.5642 281.401 65.5667Z" fill="#393B46"/>
<path d="M300.287 91.8458L298.25 87.2821C298.125 87.0008 297.893 86.7801 297.607 86.6694C297.32 86.5588 297.002 86.5668 296.724 86.6914C296.444 86.8168 296.226 87.0481 296.118 87.3354C296.009 87.6227 296.018 87.9427 296.144 88.224L297.024 90.1959C296.412 89.8366 295.816 89.4573 295.235 89.0587C295.168 88.998 295.093 88.946 295.014 88.9027C290.661 85.8468 287.219 81.6537 285.06 76.7786C284.378 75.2501 283.824 73.6668 283.407 72.0456C283.369 71.8976 283.302 71.7582 283.21 71.6356C283.118 71.5136 283.004 71.4103 282.872 71.3323C282.742 71.2543 282.596 71.2029 282.446 71.1816C282.296 71.1596 282.142 71.1683 281.996 71.2056C281.848 71.2436 281.71 71.3103 281.589 71.4016C281.468 71.4936 281.366 71.6082 281.29 71.7396C281.212 71.8709 281.162 72.0169 281.142 72.1676C281.12 72.3189 281.13 72.4729 281.168 72.6215C281.486 73.8575 281.879 75.0734 282.342 76.2627L280.688 75.414C280.552 75.3414 280.403 75.2961 280.25 75.2814C280.096 75.2674 279.942 75.2834 279.796 75.3301C279.649 75.376 279.514 75.4514 279.397 75.5514C279.28 75.6514 279.184 75.7734 279.115 75.9114C279.047 76.0493 279.006 76.2 278.995 76.354C278.985 76.508 279.005 76.6633 279.055 76.8093C279.105 76.956 279.184 77.0913 279.286 77.2073C279.388 77.3233 279.512 77.4173 279.652 77.4846L283.894 79.6492C285.691 83.0683 288.097 86.1281 290.991 88.6773L289.009 88.6267C288.703 88.6193 288.407 88.734 288.186 88.9467C287.965 89.1586 287.837 89.4506 287.831 89.7586C287.825 90.0666 287.941 90.3652 288.153 90.5886C288.365 90.8119 288.657 90.9412 288.963 90.9492L294.098 91.0772C296.225 92.5178 298.515 93.6957 300.92 94.5864C301.065 94.6503 301.221 94.6843 301.378 94.6857C301.536 94.687 301.692 94.6564 301.837 94.5944C301.982 94.533 302.113 94.4424 302.221 94.3277C302.329 94.213 302.413 94.077 302.467 93.9284C302.521 93.7804 302.545 93.6217 302.535 93.4631C302.527 93.3051 302.485 93.1504 302.415 93.0078C302.344 92.8658 302.245 92.7398 302.124 92.6378C302.003 92.5351 301.863 92.4585 301.711 92.4125C301.228 92.2352 300.753 92.0458 300.287 91.8458Z" fill="#393B46"/>
<path d="M327.058 90.1052C326.46 90.4519 325.846 90.7792 325.221 91.0879L317.486 73.7581L318.731 70.213C318.787 70.067 318.813 69.9123 318.807 69.757C318.801 69.6017 318.764 69.4497 318.698 69.3097C318.632 69.1697 318.539 69.0444 318.422 68.9417C318.306 68.8391 318.17 68.7604 318.023 68.7104C317.875 68.6611 317.718 68.6411 317.562 68.6531C317.405 68.6644 317.253 68.7064 317.113 68.7777C316.973 68.8484 316.848 68.9457 316.746 69.065C316.645 69.1837 316.567 69.3217 316.52 69.4704L316.103 70.6596L315.386 69.0544C315.261 68.7737 315.027 68.5551 314.738 68.4464C314.448 68.3378 314.126 68.3484 313.842 68.4757C313.558 68.6031 313.334 68.8364 313.222 69.125C313.11 69.413 313.116 69.733 313.242 70.0137L323.005 91.8872C320.565 92.1211 317.253 90.2439 313.686 86.5461C313.472 86.3241 313.178 86.1968 312.867 86.1921C312.556 86.1868 312.255 86.3041 312.029 86.5181C311.804 86.7328 311.672 87.0261 311.664 87.3341C311.655 87.6427 311.77 87.94 311.984 88.162C314.403 90.6666 316.748 92.4178 318.923 93.3744C315.43 94.2204 311.818 94.4297 308.265 93.991C308.112 93.9724 307.957 93.9837 307.808 94.0237C307.659 94.0644 307.52 94.1337 307.397 94.227C307.275 94.321 307.172 94.437 307.094 94.5697C307.017 94.7023 306.966 94.849 306.945 95.0003C306.925 95.1516 306.934 95.3056 306.973 95.453C307.013 95.5996 307.081 95.7376 307.174 95.8583C307.267 95.9783 307.384 96.0796 307.517 96.1549C307.65 96.2303 307.797 96.2789 307.949 96.2976C313.782 97.0162 319.718 96.1176 325.102 93.7017C326.171 93.2238 327.214 92.6885 328.227 92.0991C328.36 92.0212 328.477 91.9185 328.57 91.7965C328.664 91.6745 328.733 91.5352 328.773 91.3879C328.812 91.2399 328.823 91.0859 328.802 90.9352C328.782 90.7839 328.732 90.6386 328.655 90.5072C328.578 90.3759 328.476 90.2612 328.354 90.1693C328.231 90.0779 328.092 90.0113 327.943 89.9733C327.795 89.9353 327.64 89.9273 327.487 89.9486C327.335 89.9699 327.188 90.0213 327.055 90.0993L327.058 90.1052Z" fill="#393B46"/>
<path d="M297.771 38.7725C298.505 38.3653 300.436 37.4478 301.279 37.124L301.296 37.1165C303.409 37.3367 306.662 39.1369 309.218 41.5148C309.384 41.6694 309.594 41.7711 309.821 41.8071C310.048 41.8431 310.282 41.8118 310.493 41.7171C310.634 41.6541 310.761 41.5649 310.868 41.4542C310.974 41.3434 311.057 41.2134 311.113 41.0717C311.168 40.93 311.196 40.7793 311.192 40.6282C311.189 40.4772 311.155 40.3288 311.094 40.1914C311.032 40.0541 310.943 39.9306 310.832 39.828C309.161 38.2676 307.262 36.9631 305.195 35.9567C305.807 35.8087 306.417 35.6775 306.979 35.5763C307.075 35.5596 307.168 35.5309 307.258 35.4911C307.516 35.3731 307.723 35.1676 307.841 34.9125C307.959 34.6575 307.98 34.3703 307.9 34.1044C307.82 33.8386 307.644 33.612 307.405 33.467C307.166 33.3219 306.881 33.2683 306.602 33.3159C304.518 33.7079 302.467 34.2657 300.469 34.9838C299.168 35.5183 297.894 36.117 296.652 36.7776C296.514 36.8503 296.391 36.9493 296.292 37.0687C296.192 37.1882 296.117 37.3256 296.072 37.473C296.026 37.6205 296.012 37.7749 296.028 37.9271C296.043 38.0794 296.09 38.2265 296.165 38.3597C296.24 38.493 296.341 38.6097 296.462 38.703C296.584 38.7963 296.724 38.8644 296.874 38.9031C297.024 38.9418 297.18 38.9505 297.335 38.9286C297.489 38.9066 297.638 38.8546 297.772 38.7754L297.771 38.7725Z" fill="#393B46"/>
<path d="M342.625 65.2565C342.318 65.239 342.016 65.3444 341.786 65.5497C341.556 65.755 341.417 66.0433 341.399 66.3514C341.141 70.9929 339.792 75.5066 337.462 79.5251L336.351 77.3919C336.208 77.1172 335.962 76.9112 335.668 76.8186C335.373 76.7259 335.054 76.7539 334.78 76.8966C334.506 77.0399 334.301 77.2859 334.208 77.5812C334.116 77.8758 334.144 78.1958 334.287 78.4698L336.011 81.779C335.837 82.0216 335.661 82.2623 335.482 82.5003L335.47 82.5169C334.7 83.5355 333.864 84.5028 332.968 85.4121C332.772 85.6048 332.652 85.8608 332.628 86.1341C332.603 86.4074 332.676 86.6807 332.832 86.906C332.99 87.1307 333.221 87.2933 333.486 87.364C333.75 87.4347 334.032 87.41 334.28 87.2934C334.411 87.234 334.531 87.1507 334.632 87.048C335.564 86.1021 336.436 85.0975 337.241 84.0409L344.018 78.3985C344.136 78.3012 344.234 78.1812 344.305 78.0458C344.376 77.9105 344.42 77.7625 344.435 77.6099C344.449 77.4579 344.433 77.3039 344.388 77.1579C344.342 77.0112 344.269 76.8752 344.171 76.7579C344.073 76.6399 343.953 76.5426 343.818 76.4713C343.682 76.3999 343.535 76.3566 343.383 76.3426C343.231 76.3286 343.077 76.3446 342.931 76.3906C342.785 76.4359 342.65 76.5099 342.533 76.6079L340.881 77.9832C342.537 74.3627 343.5 70.4622 343.719 66.4849C343.737 66.1769 343.631 65.8745 343.426 65.6441C343.221 65.4138 342.933 65.2744 342.625 65.2565Z" fill="#393B46"/>
<path d="M313.36 46.3261C316.418 50.2643 319.284 55.136 321.641 60.4143C321.746 60.6499 321.85 60.884 321.955 61.1198L319.696 60.7647C319.386 60.716 319.068 60.7917 318.813 60.975C318.557 61.1584 318.384 61.4345 318.333 61.7425C318.281 62.0505 318.354 62.3653 318.537 62.6175C318.719 62.8697 318.996 63.0387 319.305 63.0875L323.001 63.6756C323.705 65.4594 324.332 67.2464 324.877 69.0149C324.968 69.3123 325.175 69.5603 325.451 69.7049C325.728 69.8489 326.052 69.8776 326.353 69.7849C326.399 69.7702 326.443 69.7529 326.487 69.7336C326.752 69.6149 326.964 69.4049 327.085 69.1429C327.205 68.8803 327.225 68.5843 327.141 68.3103C326.522 66.2978 325.797 64.2627 324.983 62.231C324.968 62.1906 324.951 62.1513 324.931 62.1131C324.572 61.2234 324.195 60.3351 323.801 59.448C322.871 57.3667 321.863 55.3447 320.797 53.413L321.887 48.9006C321.931 48.748 321.942 48.5886 321.921 48.4321C321.901 48.2756 321.849 48.125 321.769 47.9894C321.688 47.8539 321.581 47.736 321.453 47.643C321.325 47.55 321.18 47.4837 321.025 47.4481C320.87 47.4125 320.71 47.4082 320.552 47.4357C320.396 47.4632 320.246 47.5217 320.111 47.6078C319.977 47.694 319.862 47.8059 319.772 47.9371C319.682 48.0682 319.619 48.2157 319.587 48.3709L319.078 50.4658C317.899 48.536 316.615 46.6717 315.232 44.881C315.039 44.6427 314.758 44.4899 314.451 44.4557C314.143 44.4215 313.833 44.5083 313.587 44.6978C313.341 44.8872 313.179 45.1641 313.136 45.4691C313.092 45.774 313.171 46.0826 313.354 46.3288L313.36 46.3261Z" fill="#393B46"/>
<path d="M327.755 75.184C327.445 75.238 327.167 75.4106 326.982 75.6633C326.797 75.9159 326.72 76.2286 326.768 76.5319C326.859 77.0952 326.937 77.6478 327.003 78.1885L324.326 76.9245C324.045 76.7919 323.719 76.7759 323.42 76.8799C323.122 76.9832 322.875 77.1985 322.734 77.4778C322.594 77.7572 322.57 78.0778 322.67 78.3691C322.769 78.6604 322.983 78.8984 323.264 79.0311L327.246 80.9117C327.343 82.5062 327.286 84.1095 327.077 85.7001C327.033 86.0067 327.115 86.3154 327.304 86.558C327.493 86.8007 327.774 86.958 328.085 86.9947C328.397 87.0313 328.713 86.9447 328.964 86.754C329.215 86.5627 329.381 86.2834 329.425 85.9767C329.823 83.1975 329.719 79.883 329.112 76.1252C329.088 75.9739 329.033 75.8306 328.952 75.7013C328.871 75.5726 328.764 75.4613 328.638 75.374C328.512 75.286 328.369 75.2246 328.217 75.192C328.066 75.1593 327.909 75.1566 327.755 75.184Z" fill="#393B46"/>
<path d="M293.195 73.1535C290.357 66.7964 289.181 59.9038 289.892 53.7399C289.927 53.4295 289.837 53.1185 289.642 52.8752C289.447 52.6319 289.162 52.4763 288.851 52.4426C288.54 52.409 288.227 52.5 287.983 52.6957C287.737 52.8913 287.58 53.1757 287.545 53.486C287.335 55.3573 287.278 57.2415 287.373 59.1204L286.055 58.0545C285.813 57.8579 285.501 57.7658 285.19 57.7984C284.878 57.831 284.591 57.9855 284.393 58.2282C284.194 58.4709 284.1 58.7817 284.131 59.0923C284.163 59.4029 284.316 59.6878 284.559 59.8844L287.677 62.4106C288.237 66.4544 289.368 70.3963 291.037 74.1187C291.198 74.4807 291.358 74.8394 291.531 75.1847L289.477 74.4487C289.329 74.3814 289.169 74.3461 289.006 74.3441C288.844 74.3414 288.682 74.3727 288.532 74.4354C288.383 74.4981 288.247 74.5914 288.134 74.7087C288.021 74.826 287.934 74.9654 287.877 75.1174C287.821 75.2694 287.797 75.4313 287.806 75.5933C287.815 75.7553 287.858 75.9133 287.931 76.0573C288.005 76.2013 288.107 76.3286 288.233 76.4313C288.359 76.534 288.504 76.6093 288.66 76.6533L293.163 78.2852C294.501 80.6044 296.059 82.7883 297.817 84.8082C297.982 85.0002 298.205 85.1328 298.453 85.1882C298.7 85.2428 298.959 85.2162 299.192 85.1128C299.296 85.0655 299.393 85.0028 299.479 84.9275C299.596 84.8255 299.692 84.7022 299.761 84.5635C299.831 84.4249 299.872 84.2742 299.883 84.1202C299.894 83.9656 299.875 83.8109 299.825 83.6649C299.777 83.5182 299.699 83.3829 299.597 83.2669C296.971 80.2324 294.813 76.8239 293.195 73.1535Z" fill="#393B46"/>
<path d="M308.044 92.3978C308.246 92.3078 308.418 92.1631 308.541 91.9798C308.665 91.7972 308.735 91.5832 308.744 91.3618C308.753 91.1405 308.7 90.9212 308.592 90.7279C308.484 90.5352 308.324 90.3759 308.131 90.2686C306.747 89.4926 305.427 88.6067 304.185 87.618C303.937 87.4221 303.623 87.3327 303.31 87.3694C302.997 87.4061 302.713 87.5654 302.518 87.8134C302.324 88.0614 302.235 88.3767 302.273 88.6906C302.311 89.004 302.471 89.2906 302.718 89.4866C304.062 90.5546 305.488 91.5125 306.985 92.3511C307.146 92.4411 307.326 92.4918 307.51 92.4998C307.694 92.5078 307.877 92.4731 308.044 92.3978Z" fill="#393B46"/>
<path d="M298.838 58.7585L300.31 54.1811C300.404 53.8853 300.377 53.5642 300.235 53.2881C300.093 53.012 299.847 52.8036 299.553 52.7084C299.257 52.6134 298.937 52.6394 298.661 52.7808C298.385 52.9222 298.176 53.1674 298.081 53.4627L296.868 57.2365L293.948 56.2255C293.656 56.1341 293.341 56.16 293.069 56.2978C292.797 56.4356 292.59 56.6743 292.49 56.9631C292.392 57.2521 292.409 57.5682 292.539 57.8445C292.67 58.1207 292.902 58.3352 293.188 58.4423L296.667 59.6382C297.393 62.1857 298.253 64.693 299.243 67.1496L296.45 66.3166C296.299 66.2542 296.136 66.2242 295.972 66.2287C295.808 66.2332 295.648 66.2721 295.5 66.3428C295.352 66.4134 295.221 66.5143 295.114 66.639C295.008 66.7636 294.929 66.9093 294.883 67.0664C294.836 67.2237 294.823 67.389 294.844 67.5517C294.865 67.7144 294.92 67.8704 295.005 68.0104C295.09 68.1503 295.204 68.271 295.339 68.3643C295.474 68.4577 295.626 68.5223 295.787 68.553L300.437 69.9422L300.446 69.9636C301.368 72.0281 302.361 74.0207 303.412 75.9339C303.431 75.9739 303.453 76.0126 303.477 76.0499C304.302 77.5465 305.158 78.9964 306.056 80.3784C306.208 80.613 306.439 80.7863 306.706 80.8657C306.974 80.9457 307.262 80.927 307.516 80.813C307.572 80.7883 307.626 80.7583 307.677 80.725C307.806 80.641 307.917 80.533 308.004 80.4063C308.092 80.279 308.153 80.1364 308.185 79.9857C308.218 79.835 308.22 79.6797 308.192 79.5277C308.164 79.3764 308.106 79.2317 308.022 79.1024C307.226 77.8732 306.46 76.5926 305.72 75.27L306.857 70.9082C306.936 70.6075 306.891 70.2876 306.734 70.0196C306.576 69.7509 306.32 69.5563 306.019 69.4776C305.718 69.3996 305.399 69.4436 305.132 69.6009C304.864 69.7583 304.669 70.0156 304.591 70.3169L304.101 72.2055C303.576 71.1562 303.071 70.0982 302.585 69.009C301.089 65.6874 299.837 62.2615 298.838 58.7585Z" fill="#393B46"/>
<path d="M295.798 51.4308C295.884 51.4137 295.967 51.3869 296.046 51.3511C296.288 51.2425 296.486 51.0548 296.607 50.8187C296.728 50.5826 296.766 50.3122 296.713 50.0518C296.298 47.9755 296.568 44.7498 296.919 43.2201C296.99 42.9176 296.937 42.5994 296.773 42.3354C296.609 42.0715 296.348 41.8834 296.046 41.8126C295.744 41.7419 295.427 41.7942 295.163 41.958C294.9 42.1219 294.712 42.3839 294.642 42.6864C294.253 44.3596 293.907 48.0059 294.417 50.5148C294.447 50.6659 294.507 50.8095 294.593 50.9374C294.679 51.0653 294.789 51.1749 294.918 51.2601C295.047 51.3452 295.19 51.4041 295.341 51.4333C295.493 51.4627 295.648 51.4618 295.798 51.4308Z" fill="#393B46"/>
<path d="M342.85 46.5906C342.549 46.5142 342.231 46.5604 341.965 46.7191C341.699 46.8777 341.506 47.1357 341.43 47.4365L340.608 50.6797C340.023 49.4814 339.363 48.3212 338.633 47.206C338.596 47.1314 338.551 47.0611 338.499 46.9966C336.219 43.5702 333.3 40.6168 329.902 38.2989L327.813 32.5943C327.761 32.4495 327.68 32.3165 327.576 32.2029C327.472 32.0892 327.347 31.9972 327.207 31.932C327.067 31.8669 326.917 31.8298 326.763 31.8231C326.609 31.8163 326.455 31.8399 326.311 31.8926C326.167 31.9453 326.033 32.0259 325.92 32.1301C325.807 32.2341 325.715 32.3596 325.65 32.4992C325.585 32.6388 325.548 32.79 325.541 32.9439C325.535 33.0978 325.558 33.2516 325.611 33.3964L326.715 36.3785C323.681 34.7875 320.412 33.6954 317.033 33.1443L314.477 29.9485C314.284 29.7057 314.002 29.5499 313.694 29.5151C313.386 29.4805 313.077 29.5697 312.834 29.7635C312.591 29.9571 312.436 30.2393 312.401 30.548C312.367 30.8566 312.456 31.1663 312.649 31.4091L313.749 32.7871C313.421 32.7668 313.093 32.7522 312.766 32.7434C312.613 32.7394 312.46 32.7656 312.317 32.8206C312.173 32.8757 312.042 32.9584 311.931 33.0642C311.819 33.17 311.729 33.2967 311.667 33.4372C311.605 33.5776 311.571 33.729 311.567 33.8827C311.563 34.0364 311.589 34.1894 311.643 34.3329C311.699 34.4765 311.781 34.6078 311.887 34.7194C311.993 34.8309 312.119 34.9206 312.259 34.9832C312.4 35.0458 312.551 35.0801 312.705 35.0842C313.343 35.1023 313.989 35.1394 314.624 35.1978C318.57 35.5639 322.403 36.719 325.895 38.5949C329.387 40.4706 332.468 43.0289 334.956 46.1183L332.2 45.6793C332.047 45.6522 331.89 45.6558 331.739 45.6899C331.588 45.724 331.445 45.7879 331.319 45.8778C331.192 45.9677 331.085 46.0819 331.004 46.2137C330.922 46.3455 330.867 46.4924 330.842 46.6456C330.818 46.7988 330.824 46.9555 330.86 47.1063C330.896 47.2573 330.962 47.3994 331.054 47.5245C331.146 47.6496 331.262 47.7552 331.394 47.8352C331.528 47.9151 331.675 47.9678 331.828 47.99L336.871 48.802C337.645 50.0171 338.329 51.2874 338.917 52.6028C339.703 54.3629 340.317 56.1952 340.75 58.0739C340.784 58.2237 340.848 58.3653 340.937 58.4907C341.026 58.616 341.139 58.7225 341.269 58.8042C341.399 58.8858 341.543 58.941 341.695 58.9666C341.847 58.9923 342.001 58.9878 342.151 58.9534C342.3 58.919 342.442 58.8555 342.567 58.7664C342.692 58.6773 342.798 58.5644 342.88 58.4341C342.962 58.3039 343.017 58.1588 343.042 58.0072C343.068 57.8556 343.063 57.7004 343.029 57.5505C342.775 56.453 342.464 55.3696 342.096 54.3049L343.688 48.0193C343.728 47.8703 343.736 47.7152 343.715 47.5627C343.694 47.4102 343.643 47.2635 343.565 47.1307C343.487 46.998 343.384 46.882 343.261 46.7893C343.138 46.6966 342.998 46.6291 342.85 46.5906Z" fill="#393B46"/>
<path d="M324.41 51.3316C324.372 51.479 324.363 51.6331 324.384 51.785C324.405 51.937 324.454 52.0839 324.531 52.2172C324.607 52.3506 324.707 52.4678 324.827 52.5623C324.947 52.6568 325.085 52.7266 325.23 52.7678L329.686 54.0342C330.094 54.8162 330.482 55.6129 330.844 56.423C332.967 61.1786 334.196 66.2386 334.397 71.0595C334.411 71.3688 334.544 71.6628 334.769 71.8761C334.993 72.0895 335.29 72.2048 335.595 72.1968C335.899 72.1888 336.186 72.0581 336.392 71.8335C336.598 71.6088 336.706 71.3088 336.693 70.9988C336.604 68.985 336.361 66.9779 335.966 64.9966L338.067 60.2683C338.191 59.9884 338.199 59.6679 338.091 59.3772C337.983 59.0865 337.766 58.8495 337.489 58.7182C337.211 58.587 336.896 58.5724 336.612 58.6775C336.327 58.7826 336.098 58.9989 335.974 59.2787L335.07 61.3158C334.492 59.3273 333.777 57.38 332.933 55.4884C332.492 54.5013 332.014 53.5308 331.508 52.5826C331.484 52.5318 331.458 52.4825 331.428 52.4354C330.136 50.0357 328.624 47.7634 326.912 45.6495L326.84 41.1058C326.837 40.9527 326.805 40.8011 326.745 40.6597C326.685 40.5182 326.599 40.3897 326.491 40.2814C326.382 40.1731 326.255 40.0872 326.115 40.0285C325.975 39.9698 325.825 39.9396 325.674 39.9396C325.524 39.9395 325.375 39.9696 325.237 40.028C325.099 40.0866 324.974 40.1724 324.869 40.2805C324.765 40.3887 324.682 40.5171 324.627 40.6585C324.572 40.7999 324.545 40.9515 324.547 41.1045L324.579 43.0302C324.44 42.8858 324.301 42.7414 324.159 42.6013C324.053 42.4846 323.925 42.3908 323.782 42.3256C323.639 42.2603 323.486 42.2249 323.331 42.2215C323.175 42.2182 323.021 42.247 322.879 42.306C322.735 42.3652 322.606 42.4534 322.499 42.5655C322.391 42.6775 322.307 42.811 322.253 42.9577C322.199 43.1045 322.174 43.2616 322.181 43.4195C322.188 43.5772 322.227 43.7325 322.294 43.8758C322.361 44.0191 322.457 44.1475 322.574 44.253C324.653 46.3375 326.491 48.6568 328.05 51.1642L325.826 50.5334C325.68 50.4894 325.527 50.4751 325.377 50.4915C325.226 50.5079 325.081 50.5546 324.949 50.6288C324.817 50.7031 324.702 50.8034 324.609 50.9241C324.517 51.0447 324.449 51.1832 324.41 51.3316Z" fill="#393B46"/>
<path d="M308.341 59.2167L310.076 63.1036C310.203 63.3879 310.44 63.6093 310.733 63.7191C311.027 63.8287 311.355 63.8178 311.643 63.6887C311.932 63.5595 312.159 63.3226 312.273 63.0302C312.387 62.7379 312.381 62.4139 312.253 62.1296L308.167 52.9742L309.856 49.3853C309.923 49.2444 309.96 49.0924 309.968 48.9378C309.975 48.7832 309.951 48.6291 309.898 48.4843C309.844 48.3396 309.763 48.207 309.658 48.094C309.552 47.9811 309.425 47.8901 309.284 47.8263C309.142 47.7624 308.989 47.7269 308.833 47.7218C308.677 47.7167 308.521 47.7421 308.374 47.7965C308.227 47.851 308.092 47.9334 307.977 48.0391C307.862 48.1448 307.768 48.2718 307.702 48.4126L306.896 50.1256L304.952 45.7731C304.826 45.4888 304.589 45.2674 304.295 45.1577C304.001 45.048 303.674 45.0589 303.385 45.1881C303.097 45.3172 302.87 45.5541 302.756 45.8465C302.641 46.1389 302.649 46.4629 302.775 46.7472L307.042 56.3068L305.572 55.8233C305.274 55.7253 304.947 55.7492 304.664 55.8896C304.38 56.0301 304.163 56.2757 304.061 56.5722C303.958 56.8689 303.978 57.1923 304.117 57.4714C304.255 57.7504 304.5 57.9622 304.798 58.0602L308.341 59.2167Z" fill="#393B46"/>
</g>
<defs>
<clipPath id="clip0_149_236">
<rect width="399.979" height="124.66" fill="white" transform="translate(0.510742 0.5)"/>
</clipPath>
</defs>
</svg>
